<svg width="49" height="49" viewBox="0 0 49 49" fill="none" xmlns="http://www.w3.org/2000/svg">
<path d="M37.6973 4.31608C37.3675 4.14312 36.9966 4.06367 36.6249 4.08634C36.2531 4.10902 35.8946 4.23294 35.5883 4.44471L9.0466 22.8197C8.7762 23.0084 8.55537 23.2596 8.40289 23.552C8.2504 23.8444 8.17078 24.1692 8.17078 24.499C8.17078 24.8287 8.2504 25.1536 8.40289 25.4459C8.55537 25.7383 8.7762 25.9895 9.0466 26.1782L35.5883 44.5533C35.8946 44.7652 36.253 44.8893 36.6248 44.9121C36.9966 44.935 37.3675 44.8557 37.6975 44.6828C38.0274 44.51 38.3038 44.2501 38.4966 43.9315C38.6895 43.6128 38.7915 43.2475 38.7916 42.875V6.125C38.7917 5.75232 38.6898 5.38673 38.4969 5.06786C38.3039 4.74899 38.0274 4.48901 37.6973 4.31608ZM34.7083 38.9775L13.7955 24.5L34.7083 10.0225V38.9775Z" fill="#2D2F46"/>
</svg>
