<svg width="40" height="48" viewBox="0 0 40 48" fill="none" xmlns="http://www.w3.org/2000/svg">
<path d="M7 13V20H4C2.93913 20 1.92172 20.4214 1.17157 21.1716C0.421427 21.9217 0 22.9391 0 24L0 44C0 45.0609 0.421427 46.0783 1.17157 46.8284C1.92172 47.5786 2.93913 48 4 48H36C37.0609 48 38.0783 47.5786 38.8284 46.8284C39.5786 46.0783 40 45.0609 40 44V24C40 22.9391 39.5786 21.9217 38.8284 21.1716C38.0783 20.4214 37.0609 20 36 20H33V13C33 9.55219 31.6304 6.24558 29.1924 3.80761C26.7544 1.36964 23.4478 0 20 0C16.5522 0 13.2456 1.36964 10.8076 3.80761C8.36964 6.24558 7 9.55219 7 13ZM12 20V13C12 10.8783 12.8429 8.84344 14.3431 7.34315C15.8434 5.84285 17.8783 5 20 5C22.1217 5 24.1566 5.84285 25.6569 7.34315C27.1571 8.84344 28 10.8783 28 13V20H12ZM16 31C16.0001 30.307 16.1803 29.626 16.5229 29.0236C16.8654 28.4212 17.3585 27.9182 17.954 27.5637C18.5494 27.2093 19.2267 27.0156 19.9196 27.0017C20.6124 26.9877 21.2969 27.154 21.9062 27.4842C22.5154 27.8145 23.0284 28.2973 23.3948 28.8854C23.7613 29.4735 23.9687 30.1468 23.9967 30.8392C24.0247 31.5316 23.8724 32.2194 23.5546 32.8352C23.2369 33.451 22.7646 33.9736 22.184 34.352L22.168 34.362C22.168 34.362 22.558 36.722 22.998 39.502V39.504C22.9975 39.9011 22.8395 40.2818 22.5587 40.5627C22.2778 40.8435 21.8971 41.0015 21.5 41.002H18.496C18.0989 41.0015 17.7182 40.8435 17.4373 40.5627C17.1565 40.2818 16.9985 39.9011 16.998 39.504V39.502L17.828 34.362C17.2662 33.9997 16.8041 33.5023 16.4841 32.9153C16.1641 32.3284 15.9963 31.6705 15.996 31.002L16 31Z" fill="#2D2F46"/>
</svg>
