<svg width="48" height="48" viewBox="0 0 48 48" fill="none" xmlns="http://www.w3.org/2000/svg">
<path d="M10 42C8.9 42 7.95867 41.6087 7.176 40.826C6.39333 40.0433 6.00133 39.1013 6 38V10C6 8.9 6.392 7.95867 7.176 7.176C7.96 6.39333 8.90133 6.00133 10 6H22C22.5667 6 23.042 6.192 23.426 6.576C23.81 6.96 24.0013 7.43467 24 8C23.9987 8.56533 23.8067 9.04067 23.424 9.426C23.0413 9.81133 22.5667 10.0027 22 10H10V38H22C22.5667 38 23.042 38.192 23.426 38.576C23.81 38.96 24.0013 39.4347 24 40C23.9987 40.5653 23.8067 41.0407 23.424 41.426C23.0413 41.8113 22.5667 42.0027 22 42H10ZM34.35 26H20C19.4333 26 18.9587 25.808 18.576 25.424C18.1933 25.04 18.0013 24.5653 18 24C17.9987 23.4347 18.1907 22.96 18.576 22.576C18.9613 22.192 19.436 22 20 22H34.35L30.6 18.25C30.2333 17.8833 30.05 17.4333 30.05 16.9C30.05 16.3667 30.2333 15.9 30.6 15.5C30.9667 15.1 31.4333 14.8913 32 14.874C32.5667 14.8567 33.05 15.0487 33.45 15.45L40.6 22.6C41 23 41.2 23.4667 41.2 24C41.2 24.5333 41 25 40.6 25.4L33.45 32.55C33.05 32.95 32.5753 33.142 32.026 33.126C31.4767 33.11 31.0013 32.9013 30.6 32.5C30.2333 32.1 30.0587 31.6253 30.076 31.076C30.0933 30.5267 30.2847 30.068 30.65 29.7L34.35 26Z" fill="#2D2F46"/>
</svg>
